<svg xmlns="http://www.w3.org/2000/svg" viewBox="0 0 200 200" fill="none">
  <circle cx="100" cy="100" r="72" stroke="#ED1C24" stroke-width="6"/>
  <path d="M100 16 L106 28 L94 28 Z" fill="#ED1C24"/>
  <path d="M100 184 L106 172 L94 172 Z" fill="#ED1C24"/>
  <path d="M16 100 L28 106 L28 94 Z" fill="#ED1C24"/>
  <path d="M184 100 L172 106 L172 94 Z" fill="#ED1C24"/>
  <path d="M33.4 33.4 L43.5 42.8 L34.1 52.2 Z" fill="#ED1C24"/>
  <path d="M166.6 166.6 L156.5 157.2 L165.9 147.8 Z" fill="#ED1C24"/>
  <path d="M166.6 33.4 L157.2 43.5 L147.8 34.1 Z" fill="#ED1C24"/>
  <path d="M33.4 166.6 L42.8 156.5 L52.2 165.9 Z" fill="#ED1C24"/>
  <circle cx="100" cy="100" r="44" fill="#1a1a1a" stroke="#2e2e2e" stroke-width="2"/>
  <path d="M116 76 A32 32 0 1 0 116 124 L108 116 A22 22 0 1 1 108 84 Z" fill="#ED1C24"/>
  <circle cx="116" cy="100" r="6" fill="#0066B3"/>
</svg>
