<?xml version="1.0" encoding="UTF-8"?>
<svg id="Layer_1" data-name="Layer 1" xmlns="http://www.w3.org/2000/svg" xmlns:xlink="http://www.w3.org/1999/xlink" viewBox="0 0 1000 1000">
  <defs>
    <style>
      .cls-1 {
        fill: url(#linear-gradient);
        stroke: #000;
        stroke-miterlimit: 10;
        stroke-width: 27px;
      }
    </style>
    <linearGradient id="linear-gradient" x1="788.86" y1="901.51" x2="317.4" y2="84.91" gradientUnits="userSpaceOnUse">
      <stop offset="0" stop-color="#281b4c"/>
      <stop offset="1" stop-color="#af1835"/>
    </linearGradient>
  </defs>
  <path class="cls-1" d="M337.36,80.44l429.74-.19c17.61-.06,31.57,8.22,42.28,21.63,37.35,60.04,70.9,122.5,107.16,183.25,15.53,24.29.92,39.73-18.86,53.1-19.66,13.29-43.74,29.04-64.37,40.46-12.54,6.94-20.95,10.49-33.85,1.72-8.08-5.49-13.18-13.47-18.18-21.62-17.16-27.95-32.18-57.33-49.13-85.43-10.14-16.81-22.14-34.66-43.13-38.16-88.59-1.68-177.41-.21-266.09-.74-15.79,1.06-25.91,8.62-36.11,19.94-43.11,68.15-81.13,139.63-122.29,209.05-11.65,22.05-13.5,33.03-1.88,55.9,39.53,65.05,74.06,133.45,114.17,198.1,9.77,15.74,23.05,32,42.84,33.96,86.04,1.48,172.23.19,258.33.66,25.26.6,39.81-15.94,51.91-35.54,17.86-28.93,33.26-59.59,51.02-88.58,12.61-20.58,24.92-35.1,50.15-21.8,19.42,10.24,42,25.78,60.67,37.99,8.18,5.35,16.57,10.37,23.01,17.91,13.82,16.19,8.67,26.68-.45,43.26-31.85,57.92-67.46,113.96-99.63,171.72-9.97,14.84-24.12,28.13-43.09,28.67h-436.09c-15.89-.39-28.59-9.33-38.35-21.07-72.84-122.34-143.72-246.04-214.6-369.59-7.03-15.14-7.87-25.37-1.3-40.95,70.18-124.31,142.34-247.64,214.52-370.79,10.33-13.12,24.21-22.95,41.59-22.87Z"/>
</svg>